<?xml version="1.0" encoding="UTF-8" standalone="no"?>
<!-- Created with Inkscape (http://www.inkscape.org/) -->

<svg
   xmlns:dc="http://purl.org/dc/elements/1.1/"
   xmlns:cc="http://creativecommons.org/ns#"
   xmlns:rdf="http://www.w3.org/1999/02/22-rdf-syntax-ns#"
   xmlns:svg="http://www.w3.org/2000/svg"
   xmlns="http://www.w3.org/2000/svg"
   xmlns:xlink="http://www.w3.org/1999/xlink"
   xmlns:sodipodi="http://sodipodi.sourceforge.net/DTD/sodipodi-0.dtd"
   xmlns:inkscape="http://www.inkscape.org/namespaces/inkscape"
   version="1.0"
   width="96"
   height="96"
   id="svg2408"
   inkscape:version="0.48.2 r9819"
   sodipodi:docname="tazpanel.svg"
   inkscape:export-filename="/home/pankso/Desktop/tazpanel.png"
   inkscape:export-xdpi="90.926559"
   inkscape:export-ydpi="90.926559">
  <sodipodi:namedview
     pagecolor="#ffffff"
     bordercolor="#666666"
     borderopacity="1"
     objecttolerance="10"
     gridtolerance="10"
     guidetolerance="10"
     inkscape:pageopacity="0"
     inkscape:pageshadow="2"
     inkscape:window-width="780"
     inkscape:window-height="633"
     id="namedview134"
     showgrid="false"
     inkscape:zoom="2.4583333"
     inkscape:cx="48.813558"
     inkscape:cy="47.999998"
     inkscape:window-x="367"
     inkscape:window-y="35"
     inkscape:window-maximized="0"
     inkscape:current-layer="svg2408" />
  <defs
     id="defs2410">
    <linearGradient
       x1="45.447727"
       y1="92.539597"
       x2="45.447727"
       y2="7.0165396"
       id="ButtonShadow"
       gradientUnits="userSpaceOnUse"
       gradientTransform="scale(1.0058652,0.994169)">
      <stop
         id="stop3750"
         style="stop-color:#000000;stop-opacity:1"
         offset="0" />
      <stop
         id="stop3752"
         style="stop-color:#000000;stop-opacity:0.58823532"
         offset="1" />
    </linearGradient>
    <linearGradient
       id="linearGradient3737">
      <stop
         id="stop3739"
         style="stop-color:#ffffff;stop-opacity:1"
         offset="0" />
      <stop
         id="stop3741"
         style="stop-color:#ffffff;stop-opacity:0"
         offset="1" />
    </linearGradient>
    <filter
       color-interpolation-filters="sRGB"
       id="filter3174">
      <feGaussianBlur
         id="feGaussianBlur3176"
         stdDeviation="1.71" />
    </filter>
    <linearGradient
       x1="36.357143"
       y1="6"
       x2="36.357143"
       y2="63.893143"
       id="linearGradient3188"
       xlink:href="#linearGradient3737"
       gradientUnits="userSpaceOnUse" />
    <filter
       x="-0.192"
       y="-0.192"
       width="1.3839999"
       height="1.3839999"
       color-interpolation-filters="sRGB"
       id="filter3794">
      <feGaussianBlur
         id="feGaussianBlur3796"
         stdDeviation="5.28" />
    </filter>
    <linearGradient
       x1="48"
       y1="20.220806"
       x2="48"
       y2="138.66119"
       id="linearGradient3613"
       xlink:href="#linearGradient3737"
       gradientUnits="userSpaceOnUse" />
    <radialGradient
       cx="48"
       cy="90.171875"
       r="42"
       fx="48"
       fy="90.171875"
       id="radialGradient3619"
       xlink:href="#linearGradient3737"
       gradientUnits="userSpaceOnUse"
       gradientTransform="matrix(1.1573129,0,0,0.99590774,-7.5510206,0.19713193)" />
    <clipPath
       id="clipPath3613">
      <rect
         width="84"
         height="84"
         rx="6"
         ry="6"
         x="6"
         y="6"
         id="rect3615"
         style="fill:#ffffff;fill-opacity:1;fill-rule:nonzero;stroke:none" />
    </clipPath>
    <linearGradient
       x1="48"
       y1="90"
       x2="48"
       y2="5.9877172"
       id="linearGradient3617"
       xlink:href="#ButtonColor"
       gradientUnits="userSpaceOnUse" />
    <linearGradient
       x1="10.31979"
       y1="21"
       x2="10.31979"
       y2="0.99929649"
       id="ButtonColor"
       gradientUnits="userSpaceOnUse">
      <stop
         id="stop3189"
         style="stop-color:#861616;stop-opacity:1"
         offset="0" />
      <stop
         id="stop3191"
         style="stop-color:#d64800;stop-opacity:1"
         offset="1" />
    </linearGradient>
    <linearGradient
       id="linearGradient3308">
      <stop
         id="stop3310"
         style="stop-color:#fc0000;stop-opacity:1"
         offset="0" />
      <stop
         id="stop3312"
         style="stop-color:#fc0000;stop-opacity:0"
         offset="1" />
    </linearGradient>
    <radialGradient
       cx="5.9628973"
       cy="10.957597"
       r="1.5017668"
       fx="5.9628973"
       fy="10.957597"
       id="radialGradient3300"
       xlink:href="#linearGradient3293"
       gradientUnits="userSpaceOnUse" />
    <linearGradient
       id="linearGradient3293">
      <stop
         id="stop3296"
         style="stop-color:#ffc64e;stop-opacity:1"
         offset="0" />
      <stop
         id="stop3839"
         style="stop-color:#f30000;stop-opacity:0.83064514"
         offset="0.30000001" />
      <stop
         id="stop3302"
         style="stop-color:#fb0000;stop-opacity:0.47580644"
         offset="0.43782738" />
      <stop
         id="stop3298"
         style="stop-color:#ffb56f;stop-opacity:0"
         offset="1" />
    </linearGradient>
    <linearGradient
       x1="21.310946"
       y1="11.446488"
       x2="6.589735"
       y2="11.788887"
       id="linearGradient2988"
       xlink:href="#linearGradient3308"
       gradientUnits="userSpaceOnUse" />
    <clipPath
       id="clipPath3271">
      <rect
         width="118"
         height="59"
         x="5"
         y="160.00336"
         id="rect3273"
         style="fill:#ffffff;fill-opacity:1;fill-rule:evenodd;stroke:none" />
    </clipPath>
    <linearGradient
       id="linearGradient3236">
      <stop
         id="stop3238"
         style="stop-color:#ffffff;stop-opacity:0"
         offset="0" />
      <stop
         id="stop3240"
         style="stop-color:#fffc2b;stop-opacity:0.234375"
         offset="0.34999999" />
      <stop
         id="stop3242"
         style="stop-color:#46d15d;stop-opacity:0.21875"
         offset="0.5" />
      <stop
         id="stop3244"
         style="stop-color:#46d1aa;stop-opacity:0"
         offset="0.64999998" />
      <stop
         id="stop3246"
         style="stop-color:#ffffff;stop-opacity:0"
         offset="1" />
    </linearGradient>
    <linearGradient
       id="linearGradient3265">
      <stop
         id="stop3267"
         style="stop-color:#ffffff;stop-opacity:0"
         offset="0" />
      <stop
         id="stop3252"
         style="stop-color:#afcff3;stop-opacity:0"
         offset="0.2" />
      <stop
         id="stop3269"
         style="stop-color:#60a0e7;stop-opacity:0.1484375"
         offset="0.34999999" />
      <stop
         id="stop3271"
         style="stop-color:#db8ef1;stop-opacity:0.2109375"
         offset="0.5" />
      <stop
         id="stop3273"
         style="stop-color:#ffffff;stop-opacity:0"
         offset="0.64999998" />
      <stop
         id="stop3275"
         style="stop-color:#ffffff;stop-opacity:0"
         offset="1" />
    </linearGradient>
    <linearGradient
       id="linearGradient3247">
      <stop
         id="stop3249"
         style="stop-color:#ffffff;stop-opacity:0"
         offset="0" />
      <stop
         id="stop3293"
         style="stop-color:#d5d5d5;stop-opacity:0"
         offset="0.30000001" />
      <stop
         id="stop3251"
         style="stop-color:#eb8888;stop-opacity:0.2578125"
         offset="0.5" />
      <stop
         id="stop3295"
         style="stop-color:#e28f25;stop-opacity:0"
         offset="0.69999999" />
      <stop
         id="stop3253"
         style="stop-color:#ffffff;stop-opacity:0"
         offset="1" />
    </linearGradient>
    <linearGradient
       x1="5"
       y1="64"
       x2="123"
       y2="64"
       id="linearGradient3239"
       xlink:href="#linearGradient3233"
       gradientUnits="userSpaceOnUse"
       gradientTransform="matrix(0.48435496,0.27965371,-0.27964247,0.48437444,34.897859,-0.89859081)" />
    <linearGradient
       id="linearGradient3233">
      <stop
         id="stop3235"
         style="stop-color:#ffffff;stop-opacity:0"
         offset="0" />
      <stop
         id="stop3297"
         style="stop-color:#ffffff;stop-opacity:0"
         offset="0.15000001" />
      <stop
         id="stop3241"
         style="stop-color:#ffffff;stop-opacity:1"
         offset="0.5" />
      <stop
         id="stop3299"
         style="stop-color:#ffffff;stop-opacity:0"
         offset="0.85000002" />
      <stop
         id="stop3237"
         style="stop-color:#ffffff;stop-opacity:0"
         offset="1" />
    </linearGradient>
    <linearGradient
       x1="73.015572"
       y1="89.130737"
       x2="73.015572"
       y2="34.606899"
       id="linearGradient3178"
       xlink:href="#ButtonColor-3"
       gradientUnits="userSpaceOnUse"
       gradientTransform="matrix(1.0095547,0,0,1.2128254,-12.466802,-27.299316)" />
    <linearGradient
       x1="58.650177"
       y1="122"
       x2="58.650177"
       y2="5.4252338"
       id="ButtonColor-3"
       gradientUnits="userSpaceOnUse"
       gradientTransform="matrix(1.0172414,0,0,1.0172414,-1.1034483,-1.1034483)">
      <stop
         id="stop3189-5"
         style="stop-color:#b8abbd;stop-opacity:1"
         offset="0" />
      <stop
         id="stop3191-7"
         style="stop-color:#dddbde;stop-opacity:1"
         offset="1" />
    </linearGradient>
    <linearGradient
       x1="25.220379"
       y1="61.92226"
       x2="94.567612"
       y2="61.92226"
       id="linearGradient3368"
       xlink:href="#linearGradient3362"
       gradientUnits="userSpaceOnUse" />
    <linearGradient
       id="linearGradient3362">
      <stop
         id="stop3364"
         style="stop-color:#4d4d4d;stop-opacity:1"
         offset="0" />
      <stop
         id="stop3366"
         style="stop-color:#ffffff;stop-opacity:1"
         offset="1" />
    </linearGradient>
    <radialGradient
       cx="59.893993"
       cy="61.92226"
       r="33.71384"
       fx="59.893993"
       fy="61.92226"
       id="radialGradient3348"
       xlink:href="#linearGradient3342"
       gradientUnits="userSpaceOnUse"
       gradientTransform="matrix(1,0,0,0.8375435,0,10.059672)" />
    <linearGradient
       id="linearGradient3342">
      <stop
         id="stop3344"
         style="stop-color:#000000;stop-opacity:0"
         offset="0" />
      <stop
         id="stop3350"
         style="stop-color:#000000;stop-opacity:0"
         offset="0.85000002" />
      <stop
         id="stop3346"
         style="stop-color:#000000;stop-opacity:1"
         offset="1" />
    </linearGradient>
    <linearGradient
       id="linearGradient3330">
      <stop
         id="stop3332"
         style="stop-color:#ffffff;stop-opacity:0.203125"
         offset="0" />
      <stop
         id="stop3334"
         style="stop-color:#ffffff;stop-opacity:0.6796875"
         offset="1" />
    </linearGradient>
    <linearGradient
       x1="5"
       y1="64"
       x2="123"
       y2="64"
       id="linearGradient3917"
       xlink:href="#linearGradient3236"
       gradientUnits="userSpaceOnUse"
       gradientTransform="matrix(-0.9850397,0.171492,-0.171492,-0.9850397,138.01803,271.06706)" />
    <linearGradient
       x1="5"
       y1="64"
       x2="123"
       y2="64"
       id="linearGradient3919"
       xlink:href="#linearGradient3265"
       gradientUnits="userSpaceOnUse"
       gradientTransform="matrix(-0.8529965,0.5216416,-0.5216416,-0.8529964,151.97682,240.20671)" />
    <linearGradient
       x1="5"
       y1="64"
       x2="123"
       y2="64"
       id="linearGradient3921"
       xlink:href="#linearGradient3247"
       gradientUnits="userSpaceOnUse"
       gradientTransform="matrix(-0.881451,-0.4719713,0.4719713,-0.881451,90.206697,305.61903)" />
    <linearGradient
       x1="5"
       y1="64"
       x2="123"
       y2="64"
       id="linearGradient3923"
       xlink:href="#linearGradient3236"
       gradientUnits="userSpaceOnUse"
       gradientTransform="matrix(-0.9850397,0.171492,-0.171492,-0.9850397,138.01803,271.06706)" />
    <linearGradient
       x1="5"
       y1="64"
       x2="123"
       y2="64"
       id="linearGradient3925"
       xlink:href="#linearGradient3265"
       gradientUnits="userSpaceOnUse"
       gradientTransform="matrix(-0.8529965,0.5216416,-0.5216416,-0.8529964,151.97682,240.20671)" />
    <linearGradient
       x1="5"
       y1="64"
       x2="123"
       y2="64"
       id="linearGradient3927"
       xlink:href="#linearGradient3247"
       gradientUnits="userSpaceOnUse"
       gradientTransform="matrix(-0.881451,-0.4719713,0.4719713,-0.881451,90.206697,305.61903)" />
    <linearGradient
       x1="73.015572"
       y1="89.130737"
       x2="73.015572"
       y2="34.606899"
       id="linearGradient3931"
       xlink:href="#ButtonColor-3"
       gradientUnits="userSpaceOnUse"
       gradientTransform="matrix(1.0095547,0,0,1.2128254,77.533198,-27.299316)" />
    <linearGradient
       x1="26.180153"
       y1="61.92226"
       x2="93.607834"
       y2="61.92226"
       id="linearGradient3948"
       xlink:href="#linearGradient3330"
       gradientUnits="userSpaceOnUse"
       gradientTransform="matrix(0,0.28234448,-0.33916637,0,69.001413,30.890837)" />
    <linearGradient
       x1="45.447727"
       y1="92.539597"
       x2="45.447727"
       y2="7.0165396"
       id="ButtonShadow-0"
       gradientUnits="userSpaceOnUse"
       gradientTransform="matrix(1.0058652,0,0,0.994169,100,0)">
      <stop
         id="stop3750-8"
         style="stop-color:#000000;stop-opacity:1"
         offset="0" />
      <stop
         id="stop3752-5"
         style="stop-color:#000000;stop-opacity:0.58823532"
         offset="1" />
    </linearGradient>
    <linearGradient
       x1="32.251034"
       y1="6.1317081"
       x2="32.251034"
       y2="90.238609"
       id="linearGradient3780"
       xlink:href="#ButtonShadow-0"
       gradientUnits="userSpaceOnUse"
       gradientTransform="matrix(1.0238095,0,0,1.0119048,-1.1428571,-98.071429)" />
    <linearGradient
       x1="32.251034"
       y1="6.1317081"
       x2="32.251034"
       y2="90.238609"
       id="linearGradient3772"
       xlink:href="#ButtonShadow-0"
       gradientUnits="userSpaceOnUse"
       gradientTransform="matrix(1.0238095,0,0,1.0119048,-1.1428571,-98.071429)" />
    <linearGradient
       x1="32.251034"
       y1="6.1317081"
       x2="32.251034"
       y2="90.238609"
       id="linearGradient3725"
       xlink:href="#ButtonShadow-0"
       gradientUnits="userSpaceOnUse"
       gradientTransform="matrix(1.0238095,0,0,1.0119048,-1.1428571,-98.071429)" />
    <linearGradient
       x1="32.251034"
       y1="6.1317081"
       x2="32.251034"
       y2="90.238609"
       id="linearGradient3721"
       xlink:href="#ButtonShadow-0"
       gradientUnits="userSpaceOnUse"
       gradientTransform="translate(0,-97)" />
    <linearGradient
       x1="32.251034"
       y1="6.1317081"
       x2="32.251034"
       y2="90.238609"
       id="linearGradient3059"
       xlink:href="#ButtonShadow-0"
       gradientUnits="userSpaceOnUse"
       gradientTransform="matrix(1.0238095,0,0,1.0119048,-1.1428571,-98.071429)" />
    <linearGradient
       x1="5.2744913"
       y1="62.878765"
       x2="-6.5244856"
       y2="66.807335"
       id="linearGradient3887"
       xlink:href="#linearGradient5128"
       gradientUnits="userSpaceOnUse" />
    <linearGradient
       id="linearGradient5128">
      <stop
         id="stop5130"
         style="stop-color:#e5e5e5;stop-opacity:1"
         offset="0" />
      <stop
         id="stop5132"
         style="stop-color:#ababab;stop-opacity:1"
         offset="1" />
    </linearGradient>
    <linearGradient
       x1="5.2744913"
       y1="62.878765"
       x2="-6.5244856"
       y2="66.807335"
       id="linearGradient3916"
       xlink:href="#linearGradient5128"
       gradientUnits="userSpaceOnUse"
       gradientTransform="matrix(0.44988627,0,0,0.44988627,-7.7869415e-6,-94.532869)" />
    <linearGradient
       id="linearGradient3341">
      <stop
         id="stop3343"
         style="stop-color:#e5e5e5;stop-opacity:1"
         offset="0" />
      <stop
         id="stop3345"
         style="stop-color:#ababab;stop-opacity:1"
         offset="1" />
    </linearGradient>
    <linearGradient
       x1="45.312279"
       y1="48.267761"
       x2="42.662289"
       y2="45.617771"
       id="linearGradient3938"
       xlink:href="#linearGradient3932"
       gradientUnits="userSpaceOnUse"
       gradientTransform="matrix(-1,0,0,-1,91.080609,91.12006)" />
    <linearGradient
       id="linearGradient3932">
      <stop
         id="stop3934"
         style="stop-color:#000000;stop-opacity:1"
         offset="0" />
      <stop
         id="stop3936"
         style="stop-color:#000000;stop-opacity:0"
         offset="1" />
    </linearGradient>
    <linearGradient
       x1="32.237946"
       y1="21.650217"
       x2="36.821369"
       y2="47.535378"
       id="linearGradient3879"
       xlink:href="#linearGradient3309"
       gradientUnits="userSpaceOnUse" />
    <linearGradient
       x1="63.9995"
       y1="3.1001"
       x2="63.9995"
       y2="122.8994"
       id="linearGradient3309"
       gradientUnits="userSpaceOnUse">
      <stop
         id="stop3311"
         style="stop-color:#f6f6f6;stop-opacity:1"
         offset="0" />
      <stop
         id="stop3313"
         style="stop-color:#d2d2d2;stop-opacity:1"
         offset="1" />
    </linearGradient>
    <linearGradient
       x1="64.669502"
       y1="71.888321"
       x2="59.574085"
       y2="52.871964"
       id="linearGradient3800"
       xlink:href="#linearGradient3724"
       gradientUnits="userSpaceOnUse" />
    <linearGradient
       id="linearGradient3724">
      <stop
         id="stop3726"
         style="stop-color:#ffa92a;stop-opacity:1"
         offset="0" />
      <stop
         id="stop3728"
         style="stop-color:#ffcf2a;stop-opacity:1"
         offset="1" />
    </linearGradient>
    <linearGradient
       x1="52.51516"
       y1="44.039856"
       x2="54.767216"
       y2="64.307716"
       id="linearGradient3747"
       xlink:href="#linearGradient3741"
       gradientUnits="userSpaceOnUse" />
    <linearGradient
       id="linearGradient3741">
      <stop
         id="stop3743"
         style="stop-color:#ffffff;stop-opacity:1"
         offset="0" />
      <stop
         id="stop3745"
         style="stop-color:#ffffff;stop-opacity:0"
         offset="1" />
    </linearGradient>
    <radialGradient
       cx="48.089584"
       cy="53.8909"
       r="5.4927044"
       fx="48.089584"
       fy="53.8909"
       id="radialGradient3791"
       xlink:href="#linearGradient3777"
       gradientUnits="userSpaceOnUse"
       gradientTransform="matrix(-0.01155242,1.9830883,-2.0305783,-0.02269268,158.07483,-40.252061)" />
    <linearGradient
       id="linearGradient3777">
      <stop
         id="stop3779"
         style="stop-color:#ff6600;stop-opacity:1"
         offset="0" />
      <stop
         id="stop3781"
         style="stop-color:#ff6600;stop-opacity:0"
         offset="1" />
    </linearGradient>
    <radialGradient
       cx="47.644325"
       cy="54.10635"
       r="4.8616066"
       fx="47.644325"
       fy="54.10635"
       id="radialGradient3811"
       xlink:href="#linearGradient3751"
       gradientUnits="userSpaceOnUse"
       gradientTransform="matrix(2.3125312,2.3348434,1.2717514,-1.2595982,-125.14605,4.532606)" />
    <linearGradient
       id="linearGradient3751">
      <stop
         id="stop3753"
         style="stop-color:#f89400;stop-opacity:1"
         offset="0" />
      <stop
         id="stop3755"
         style="stop-color:#f89400;stop-opacity:0"
         offset="1" />
    </linearGradient>
    <linearGradient
       x1="60.755741"
       y1="66.836105"
       x2="69.693596"
       y2="69.230995"
       id="linearGradient3871"
       xlink:href="#linearGradient3865"
       gradientUnits="userSpaceOnUse"
       gradientTransform="matrix(0.5,0.8660254,-0.8660254,0.5,91.523702,-24.523702)" />
    <linearGradient
       id="linearGradient3865">
      <stop
         id="stop3867"
         style="stop-color:#ffe99d;stop-opacity:1"
         offset="0" />
      <stop
         id="stop3869"
         style="stop-color:#ffe99d;stop-opacity:0"
         offset="1" />
    </linearGradient>
  </defs>
  <metadata
     id="metadata2413">
    <rdf:RDF>
      <cc:Work
         rdf:about="">
        <dc:format>image/svg+xml</dc:format>
        <dc:type
           rdf:resource="http://purl.org/dc/dcmitype/StillImage" />
        <dc:title />
      </cc:Work>
    </rdf:RDF>
  </metadata>
  <g
     id="layer2"
     style="display:none">
    <rect
       width="86"
       height="85"
       rx="6"
       ry="6"
       x="5"
       y="7"
       id="rect3745"
       style="opacity:0.9;fill:url(#ButtonShadow);fill-opacity:1;fill-rule:nonzero;stroke:none;filter:url(#filter3174)" />
  </g>
  <g
     id="layer6"
     style="display:inline">
    <path
       d="m 12,-95.03125 c -5.5110903,0 -10.03125,4.52016 -10.03125,10.03125 l 0,71 c 0,5.5110902 4.5201598,10.03125 10.03125,10.03125 l 72,0 c 5.51109,0 10.03125,-4.5201597 10.03125,-10.03125 l 0,-71 c 0,-5.51109 -4.52016,-10.03125 -10.03125,-10.03125 l -72,0 z"
       transform="scale(1,-1)"
       id="path3786"
       style="opacity:0.07999998;fill:url(#linearGradient3059);fill-opacity:1;fill-rule:nonzero;stroke:none;display:inline" />
    <path
       d="m 12,-94.03125 c -4.971633,0 -9.03125,4.059617 -9.03125,9.03125 l 0,71 c 0,4.9716329 4.0596171,9.03125 9.03125,9.03125 l 72,0 c 4.971633,0 9.03125,-4.059617 9.03125,-9.03125 l 0,-71 c 0,-4.971633 -4.059617,-9.03125 -9.03125,-9.03125 l -72,0 z"
       transform="scale(1,-1)"
       id="path3778"
       style="opacity:0.1;fill:url(#linearGradient3780);fill-opacity:1;fill-rule:nonzero;stroke:none;display:inline" />
    <path
       d="m 12,-93 c -4.4091333,0 -8,3.590867 -8,8 l 0,71 c 0,4.4091333 3.5908667,8 8,8 l 72,0 c 4.409133,0 8,-3.5908667 8,-8 l 0,-71 c 0,-4.409133 -3.590867,-8 -8,-8 l -72,0 z"
       transform="scale(1,-1)"
       id="path3770"
       style="opacity:0.2;fill:url(#linearGradient3772);fill-opacity:1;fill-rule:nonzero;stroke:none;display:inline" />
    <rect
       width="86"
       height="85"
       rx="7"
       ry="7"
       x="5"
       y="-92"
       transform="scale(1,-1)"
       id="rect3723"
       style="opacity:0.3;fill:url(#linearGradient3725);fill-opacity:1;fill-rule:nonzero;stroke:none;display:inline" />
    <rect
       width="84"
       height="84"
       rx="6"
       ry="6"
       x="6"
       y="-91"
       transform="scale(1,-1)"
       id="rect3716"
       style="opacity:0.45;fill:url(#linearGradient3721);fill-opacity:1;fill-rule:nonzero;stroke:none;display:inline" />
  </g>
  <g
     id="layer1"
     style="display:inline">
    <rect
       width="84"
       height="84"
       rx="6"
       ry="6"
       x="6"
       y="6"
       id="rect2419"
       style="fill:url(#linearGradient3617);fill-opacity:1;fill-rule:nonzero;stroke:none" />
    <path
       d="M 12,6 C 8.676,6 6,8.676 6,12 l 0,2 0,68 0,2 c 0,0.334721 0.04135,0.6507 0.09375,0.96875 0.0487,0.295596 0.09704,0.596915 0.1875,0.875 0.00988,0.03038 0.020892,0.0636 0.03125,0.09375 0.098865,0.287771 0.2348802,0.547452 0.375,0.8125 0.1445918,0.273507 0.3156161,0.535615 0.5,0.78125 0.1843839,0.245635 0.3737765,0.473472 0.59375,0.6875 0.439947,0.428056 0.94291,0.814526 1.5,1.09375 0.278545,0.139612 0.5734731,0.246947 0.875,0.34375 -0.2562018,-0.100222 -0.4867109,-0.236272 -0.71875,-0.375 -0.00741,-0.0044 -0.023866,0.0045 -0.03125,0 -0.031933,-0.0193 -0.062293,-0.04251 -0.09375,-0.0625 -0.120395,-0.0767 -0.2310226,-0.163513 -0.34375,-0.25 -0.1061728,-0.0808 -0.2132809,-0.161112 -0.3125,-0.25 C 8.4783201,88.557317 8.3087904,88.373362 8.15625,88.1875 8.0486711,88.057245 7.9378561,87.922215 7.84375,87.78125 7.818661,87.74287 7.805304,87.69538 7.78125,87.65625 7.716487,87.553218 7.6510225,87.451733 7.59375,87.34375 7.4927417,87.149044 7.3880752,86.928049 7.3125,86.71875 7.30454,86.69694 7.288911,86.6782 7.28125,86.65625 7.2494249,86.5643 7.2454455,86.469419 7.21875,86.375 7.1884177,86.268382 7.1483606,86.171969 7.125,86.0625 7.0521214,85.720988 7,85.364295 7,85 L 7,83 7,15 7,13 C 7,10.218152 9.2181517,8 12,8 l 2,0 68,0 2,0 c 2.781848,0 5,2.218152 5,5 l 0,2 0,68 0,2 c 0,0.364295 -0.05212,0.720988 -0.125,1.0625 -0.04415,0.206893 -0.08838,0.397658 -0.15625,0.59375 -0.0077,0.02195 -0.0233,0.04069 -0.03125,0.0625 -0.06274,0.173739 -0.138383,0.367449 -0.21875,0.53125 -0.04158,0.0828 -0.07904,0.169954 -0.125,0.25 -0.0546,0.09721 -0.126774,0.18835 -0.1875,0.28125 -0.09411,0.140965 -0.204921,0.275995 -0.3125,0.40625 -0.143174,0.17445 -0.303141,0.346998 -0.46875,0.5 -0.01117,0.0102 -0.01998,0.02115 -0.03125,0.03125 -0.138386,0.125556 -0.285091,0.234436 -0.4375,0.34375 -0.102571,0.07315 -0.204318,0.153364 -0.3125,0.21875 -0.0074,0.0045 -0.02384,-0.0044 -0.03125,0 -0.232039,0.138728 -0.462548,0.274778 -0.71875,0.375 0.301527,-0.0968 0.596455,-0.204138 0.875,-0.34375 0.55709,-0.279224 1.060053,-0.665694 1.5,-1.09375 0.219973,-0.214028 0.409366,-0.441865 0.59375,-0.6875 0.184384,-0.245635 0.355408,-0.507743 0.5,-0.78125 0.14012,-0.265048 0.276135,-0.524729 0.375,-0.8125 0.01041,-0.03078 0.02133,-0.06274 0.03125,-0.09375 0.09046,-0.278085 0.1388,-0.579404 0.1875,-0.875 C 89.95865,84.6507 90,84.334721 90,84 l 0,-2 0,-68 0,-2 C 90,8.676 87.324,6 84,6 L 12,6 z"
       inkscape:connector-curvature="0"
       id="rect3728"
       style="opacity:0.3;fill:url(#linearGradient3188);fill-opacity:1;fill-rule:nonzero;stroke:none" />
    <path
       d="M 12,90 C 8.676,90 6,87.324 6,84 L 6,82 6,14 6,12 c 0,-0.334721 0.04135,-0.6507 0.09375,-0.96875 0.0487,-0.295596 0.09704,-0.596915 0.1875,-0.875 C 6.29113,10.12587 6.302142,10.09265 6.3125,10.0625 6.411365,9.774729 6.5473802,9.515048 6.6875,9.25 6.8320918,8.976493 7.0031161,8.714385 7.1875,8.46875 7.3718839,8.223115 7.5612765,7.995278 7.78125,7.78125 8.221197,7.353194 8.72416,6.966724 9.28125,6.6875 9.559795,6.547888 9.8547231,6.440553 10.15625,6.34375 9.9000482,6.443972 9.6695391,6.580022 9.4375,6.71875 c -0.00741,0.0044 -0.023866,-0.0045 -0.03125,0 -0.031933,0.0193 -0.062293,0.04251 -0.09375,0.0625 -0.120395,0.0767 -0.2310226,0.163513 -0.34375,0.25 -0.1061728,0.0808 -0.2132809,0.161112 -0.3125,0.25 C 8.4783201,7.442683 8.3087904,7.626638 8.15625,7.8125 8.0486711,7.942755 7.9378561,8.077785 7.84375,8.21875 7.818661,8.25713 7.805304,8.30462 7.78125,8.34375 7.716487,8.446782 7.6510225,8.548267 7.59375,8.65625 7.4927417,8.850956 7.3880752,9.071951 7.3125,9.28125 7.30454,9.30306 7.288911,9.3218 7.28125,9.34375 7.2494249,9.4357 7.2454455,9.530581 7.21875,9.625 7.1884177,9.731618 7.1483606,9.828031 7.125,9.9375 7.0521214,10.279012 7,10.635705 7,11 l 0,2 0,68 0,2 c 0,2.781848 2.2181517,5 5,5 l 2,0 68,0 2,0 c 2.781848,0 5,-2.218152 5,-5 l 0,-2 0,-68 0,-2 C 89,10.635705 88.94788,10.279012 88.875,9.9375 88.83085,9.730607 88.78662,9.539842 88.71875,9.34375 88.71105,9.3218 88.69545,9.30306 88.6875,9.28125 88.62476,9.107511 88.549117,8.913801 88.46875,8.75 88.42717,8.6672 88.38971,8.580046 88.34375,8.5 88.28915,8.40279 88.216976,8.31165 88.15625,8.21875 88.06214,8.077785 87.951329,7.942755 87.84375,7.8125 87.700576,7.63805 87.540609,7.465502 87.375,7.3125 87.36383,7.3023 87.35502,7.29135 87.34375,7.28125 87.205364,7.155694 87.058659,7.046814 86.90625,6.9375 86.803679,6.86435 86.701932,6.784136 86.59375,6.71875 c -0.0074,-0.0045 -0.02384,0.0044 -0.03125,0 -0.232039,-0.138728 -0.462548,-0.274778 -0.71875,-0.375 0.301527,0.0968 0.596455,0.204138 0.875,0.34375 0.55709,0.279224 1.060053,0.665694 1.5,1.09375 0.219973,0.214028 0.409366,0.441865 0.59375,0.6875 0.184384,0.245635 0.355408,0.507743 0.5,0.78125 0.14012,0.265048 0.276135,0.524729 0.375,0.8125 0.01041,0.03078 0.02133,0.06274 0.03125,0.09375 0.09046,0.278085 0.1388,0.579404 0.1875,0.875 C 89.95865,11.3493 90,11.665279 90,12 l 0,2 0,68 0,2 c 0,3.324 -2.676,6 -6,6 l -72,0 z"
       inkscape:connector-curvature="0"
       id="path3615"
       style="opacity:0.15;fill:url(#radialGradient3619);fill-opacity:1;fill-rule:nonzero;stroke:none" />
  </g>
  <g
     transform="translate(0.86341246,0.35640923)"
     id="layer3"
     style="display:inline">
    <path
       inkscape:connector-curvature="0"
       d="m 34.78125,18.96875 c -2.070023,0.134235 -4.674091,0.171999 -6.75,1.6875 a 1.0122248,1.0122248 0 0 0 -0.09375,0.0625 c -0.802198,0.758366 -1.024972,1.868655 -0.8125,2.78125 0.195647,0.840331 0.732947,1.55348 1.4375,2.0625 l -0.03125,0.03125 4.59375,4.5625 -3.96875,3.96875 c -1.827484,-1.828353 -3.642453,-3.740628 -5.5625,-5.53125 A 1.0122248,1.0122248 0 0 0 23.46875,28.5 C 21.632383,27.283784 19.293735,28.57677 18.875,30.59375 L 18.8125,30.5625 c -2.91023,8.201452 1.58686,17.980926 9.78125,21 0.0089,0.0033 0.02231,-0.0033 0.03125,0 3.197827,1.239522 6.744217,1.342286 10.0625,0.5625 L 40.5625,54 c -0.232099,1.151094 -0.09779,2.295502 0.375,3.21875 0.565372,1.104028 1.453808,1.95467 2.28125,2.6875 L 43.1875,59.9375 c 0.01563,0.01565 0.04687,0.0156 0.0625,0.03125 5.495045,5.503034 10.936511,11.051553 16.53125,16.46875 a 1.0122248,1.0122248 0 0 0 0.0625,0.03125 c 5.025102,4.357431 13.411785,2.921639 16.625,-2.90625 0.0042,-0.0077 -0.0042,-0.02357 0,-0.03125 2.858036,-4.643898 1.560051,-10.891025 -2.5625,-14.3125 L 73.9375,59.1875 C 73.91153,59.16135 73.86972,59.15115 73.84375,59.125 68.325104,53.566963 62.807163,48.032205 57.21875,42.53125 L 57.1875,42.5625 c -0.506924,-0.591982 -1.147134,-0.964023 -1.75,-1.09375 -0.635768,-0.136807 -1.194648,-0.115161 -1.65625,-0.09375 -0.461602,0.02141 -0.806061,0.02432 -1,-0.03125 -0.193939,-0.05557 -0.294682,-0.08929 -0.46875,-0.40625 a 1.0122248,1.0122248 0 0 0 -0.40625,-0.375 C 51.547491,40.367884 51.449868,40.191988 51.375,40.03125 51.30013,39.870512 51.260699,39.643391 51.28125,39.3125 c 0.04018,-0.647015 0.339348,-1.585389 0.375,-2.6875 8.14e-4,-0.02515 -5.24e-4,-0.03719 0,-0.0625 0.615215,-8.184403 -5.530047,-15.919042 -13.5625,-17.3125 -1.075608,-0.208205 -2.163133,-0.285291 -3.25,-0.28125 a 1.0122248,1.0122248 0 0 0 -0.0625,0 z"
       id="path3973"
       style="opacity:0.05;fill:#000000;fill-opacity:1;stroke:none" />
    <path
       d="m 34.84375,19.96875 c -2.089174,0.135477 -4.48031,0.230865 -6.21875,1.5 -1.059014,1.00115 -0.507676,2.684056 0.61295,3.391122 1.77485,1.765459 3.5497,3.530919 5.32455,5.296378 -1.802083,1.802083 -3.604167,3.604167 -5.40625,5.40625 -2.093025,-2.057748 -4.116318,-4.228893 -6.25,-6.21875 -1.237569,-0.819635 -2.933927,0.154651 -3.123531,1.56402 -2.715926,7.653876 1.54437,16.921657 9.193036,19.723139 3.204624,1.249221 6.81039,1.381257 10.117995,0.462841 0.84375,0.84375 1.6875,1.6875 2.53125,2.53125 -0.879732,2.260738 0.710433,4.189556 2.295084,5.583438 5.513787,5.521415 10.9674,11.095283 16.566868,16.517059 4.513183,3.913529 12.23381,2.535268 15.106355,-2.707243 2.605629,-4.205915 1.417077,-10.026702 -2.377593,-13.10841 C 67.673663,54.327719 62.099848,48.759405 56.488288,43.235665 54.978787,41.325978 52.566053,43.495824 51.433425,41.433425 49.406058,40.33364 50.631634,38.375829 50.669732,36.534608 51.276728,28.889002 45.410035,21.559351 37.900048,20.25653 36.893836,20.061758 35.868651,19.964939 34.84375,19.96875 z M 67,67.03125 c 2.823801,0.688773 -1.36595,3.476049 -0.900008,0.569507 C 66.225294,67.2315 66.624423,67.015433 67,67.03125 z"
       inkscape:connector-curvature="0"
       id="path3959"
       style="opacity:0.07999998;fill:#000000;fill-opacity:1;stroke:none" />
    <path
       inkscape:connector-curvature="0"
       d="m 34.84375,21.09375 c -1.733306,0.0064 -3.456486,0.332808 -5.09375,0.9375 A 0.89294642,0.89294642 0 0 0 29.4375,23.5 L 36.125,30.15625 29.15625,37.125 22.5,30.4375 A 0.89294642,0.89294642 0 0 0 21.03125,30.75 c -1.94047,5.2539 -0.81098,11.407767 3.40625,15.625 4.069275,4.069274 9.903813,5.199471 15.03125,3.53125 L 42.8125,53.25 c -0.667141,1.219708 -0.528484,2.752763 0.5,3.78125 l 12.25,12.28125 0.8125,0.84375 a 0.89294642,0.89294642 0 0 0 0.03125,0 L 60.5,74.25 c 3.519573,3.519571 9.230427,3.519571 12.75,0 3.519574,-3.51957 3.519574,-9.230429 0,-12.75 l -4.09375,-4.09375 a 0.89294642,0.89294642 0 0 0 0,-0.03125 L 68.3125,56.5625 56.03125,44.3125 C 55.402835,43.684091 54.577035,43.34375 53.75,43.34375 c -0.53057,0 -1.029134,0.207781 -1.5,0.46875 L 48.90625,40.46875 C 50.574473,35.341313 49.444278,29.506775 45.375,25.4375 42.474613,22.53711 38.647577,21.079804 34.84375,21.09375 z M 67,65.90625 c 1.174313,0 2.09375,0.919433 2.09375,2.09375 0,1.174317 -0.919437,2.09375 -2.09375,2.09375 -1.174313,0 -2.09375,-0.919433 -2.09375,-2.09375 0,-1.174317 0.919437,-2.09375 2.09375,-2.09375 z"
       id="path3955"
       style="opacity:0.2;fill:#000000;fill-opacity:1;stroke:none" />
    <path
       d="m 34.84375,22 c -1.625968,0.006 -3.238359,0.305163 -4.78125,0.875 L 37.375,30.15625 29.15625,38.375 21.875,31.0625 c -1.823523,4.937261 -0.778236,10.721761 3.1875,14.6875 3.97358,3.973579 9.743764,5.026055 14.6875,3.1875 l 4.1875,4.1875 c -0.908347,0.90835 -0.908347,2.3729 0,3.28125 l 12.28125,12.28125 0.8125,0.84375 4.09375,4.09375 c 3.17923,3.179228 8.32077,3.179228 11.5,0 3.17923,-3.179226 3.17923,-8.320773 0,-11.5 L 68.53125,58.03125 67.6875,57.21875 55.40625,44.9375 C 54.95207,44.483324 54.34272,44.25 53.75,44.25 c -0.59272,0 -1.17083,0.233324 -1.625,0.6875 L 47.9375,40.75 C 49.776057,35.806264 48.723583,30.03608 44.75,26.0625 42.023556,23.336054 38.420881,21.986885 34.84375,22 z M 67,65 c 1.65685,0 3,1.343146 3,3 0,1.656854 -1.34315,3 -3,3 -1.65685,0 -3,-1.343146 -3,-3 0,-1.656854 1.34315,-3 3,-3 z"
       inkscape:connector-curvature="0"
       id="path3940"
       style="opacity:0.3;fill:#000000;fill-opacity:1;stroke:none" />
    <rect
       width="10"
       height="12.678572"
       x="-41"
       y="35.321426"
       id="rect2921"
       style="fill:#cccccc;fill-opacity:1;stroke:none" />
    <path
       d="m -41,17.09375 c -4.123354,1.899084 -7,6.068869 -7,10.90625 0,6.627417 5.372583,12 12,12 6.627417,0 12,-5.372583 12,-12 0,-4.837381 -2.876646,-9.007166 -7,-10.90625 L -31,26 l -10,0 0,-8.90625 z"
       inkscape:connector-curvature="0"
       id="path2917"
       style="fill:#e6e6e6;fill-opacity:1;stroke:none" />
    <path
       d="m -41,44 c -1.108,0 -2,0.892 -2,2 l 0,15 0,1 0,5 c 0,3.878 3.122,7 7,7 3.878,0 7,-3.122 7,-7 l 0,-5 0,-1 0,-15 c 0,-1.108 -0.892,-2 -2,-2 l -10,0 z"
       inkscape:connector-curvature="0"
       id="rect2928"
       style="fill:#ffa92a;fill-opacity:1;stroke:none" />
    <rect
       width="11.593881"
       height="14.699384"
       x="-5.7969375"
       y="57.850506"
       transform="matrix(0.70710678,-0.70710678,0.70710678,0.70710678,0,0)"
       id="rect3705"
       style="fill:url(#linearGradient3887);fill-opacity:1;stroke:none" />
    <rect
       width="5.2159276"
       height="6.6130509"
       x="-2.6079667"
       y="-68.506721"
       transform="matrix(-0.70710678,0.70710678,-0.70710678,-0.70710678,0,0)"
       id="rect3914"
       style="fill:url(#linearGradient3916);fill-opacity:1;stroke:none" />
    <path
       d="m 47.138973,38.966991 -8.270624,8.239057 5.010153,4.947018 8.333758,-8.081221 -5.073287,-5.104854 z"
       inkscape:connector-curvature="0"
       id="path3922"
       style="opacity:0.4;fill:url(#linearGradient3938);fill-opacity:1;stroke:none" />
    <path
       d="M 45,36.8125 36.8125,45 47.1875,55.40625 55.40625,47.1875 45,36.8125 z M 45,38.25 53.96875,47.1875 47.1875,53.96875 38.25,45 45,38.25 z"
       inkscape:connector-curvature="0"
       id="rect3907"
       style="opacity:0.2;fill:#000000;fill-opacity:1;stroke:none" />
    <path
       d="m 21.864146,30.062258 c -1.823523,4.937261 -0.763346,10.714004 3.20239,14.679743 5.433231,5.43323 14.242237,5.43323 19.675468,0 5.433231,-5.43323 5.433231,-14.242236 0,-19.675467 -3.965736,-3.965739 -9.742486,-5.025868 -14.679738,-3.202388 l 7.301439,7.301444 -8.198109,8.198111 -7.30145,-7.301443 z"
       inkscape:connector-curvature="0"
       id="path3707"
       style="fill:url(#linearGradient3879);fill-opacity:1;stroke:none" />
    <path
       d="m 53.75,43.25 c -0.592724,0 -1.170827,0.233324 -1.625,0.6875 l -8.1875,8.1875 c -0.908347,0.90835 -0.908347,2.3729 0,3.28125 l 12.28125,12.28125 0.8125,0.84375 4.09375,4.09375 c 3.179227,3.179228 8.320773,3.179228 11.5,0 3.179226,-3.179226 3.179226,-8.320773 0,-11.5 L 68.53125,57.03125 67.6875,56.21875 55.40625,43.9375 C 54.952071,43.483324 54.342724,43.25 53.75,43.25 z M 67,64 c 1.656854,0 3,1.343146 3,3 0,1.656854 -1.343146,3 -3,3 -1.656854,0 -3,-1.343146 -3,-3 0,-1.656854 1.343146,-3 3,-3 z"
       inkscape:connector-curvature="0"
       id="path3709"
       style="fill:url(#linearGradient3800);fill-opacity:1;stroke:none" />
    <path
       d="m 73.125,62.625 c 0.238886,0.733299 0.375,1.530733 0.375,2.34375 0,4.149321 -3.350679,7.5 -7.5,7.5 -2.538386,0 -4.796157,-1.26003 -6.15625,-3.1875 0.980297,3.009171 3.819946,5.1875 7.15625,5.1875 4.149321,0 7.5,-3.350679 7.5,-7.5 0,-1.612849 -0.509972,-3.119708 -1.375,-4.34375 z"
       inkscape:connector-curvature="0"
       id="path3846"
       style="opacity:0.8;fill:#f98d01;fill-opacity:1;stroke:none" />
    <path
       d="m 53.75,43.25 c -0.592724,0 -1.170827,0.233324 -1.625,0.6875 l -8.1875,8.1875 c -0.908347,0.90835 -0.908347,2.3729 0,3.28125 l 12.28125,12.28125 0.8125,0.84375 4.09375,4.09375 c 3.179227,3.179228 8.320773,3.179228 11.5,0 3.179226,-3.179226 3.179226,-8.320773 0,-11.5 L 68.53125,57.03125 67.6875,56.21875 55.40625,43.9375 C 54.952071,43.483324 54.342724,43.25 53.75,43.25 z m 0,1.34375 c 0.239118,0 0.52751,0.09001 0.71875,0.28125 L 66.75,57.15625 a 1.3475579,1.3475579 0 0 0 0,0.03125 L 67.59375,58 71.6875,62.0625 c 2.665608,2.665609 2.665608,6.959392 0,9.625 -2.665609,2.66561 -6.959391,2.66561 -9.625,0 L 58,67.59375 57.1875,66.75 a 1.3475579,1.3475579 0 0 0 -0.03125,0 L 44.875,54.46875 c -0.39629,-0.396292 -0.39629,-1.009958 0,-1.40625 l 8.1875,-8.1875 c 0.213078,-0.21308 0.448382,-0.28125 0.6875,-0.28125 z"
       inkscape:connector-curvature="0"
       id="path3717"
       style="fill:#d88100;fill-opacity:1;stroke:none" />
    <path
       d="m 67,63 c -2.209139,0 -4,1.790861 -4,4 0,2.209139 1.790861,4 4,4 2.209139,0 4,-1.790861 4,-4 0,-2.209139 -1.790861,-4 -4,-4 z m 0,1 c 1.656854,0 3,1.343146 3,3 0,1.656854 -1.343146,3 -3,3 -1.656854,0 -3,-1.343146 -3,-3 0,-1.656854 1.343146,-3 3,-3 z"
       inkscape:connector-curvature="0"
       id="path3803"
       style="fill:#d88100;fill-opacity:1;stroke:none" />
    <path
       d="m 53.75,44.5625 c -0.247452,0 -0.46874,0.09374 -0.6875,0.3125 l -8.1875,8.1875 c -0.408358,0.40836 -0.408358,0.99789 0,1.40625 L 57.15625,66.75 a 1.3157991,1.3157991 0 0 1 0,0.03125 l 0.8125,0.84375 4.09375,4.0625 c 2.677714,2.677715 6.947286,2.677715 9.625,0 2.677713,-2.677713 2.677713,-6.947286 0,-9.625 l -4.0625,-4.09375 -0.84375,-0.8125 a 1.3157991,1.3157991 0 0 1 -0.03125,0 L 54.46875,44.875 C 54.271313,44.677564 53.997452,44.5625 53.75,44.5625 z m 0,1.625 12,11.96875 a 2.7497838,2.7497838 0 0 0 0.03125,0.03125 l 0.8125,0.78125 L 66.625,59 l 4.0625,4.0625 c 2.131154,2.131155 2.131154,5.493846 0,7.625 -2.131155,2.131156 -5.493845,2.131156 -7.625,0 L 59,66.625 58.96875,66.59375 58.1875,65.78125 A 2.7497838,2.7497838 0 0 0 58.15625,65.75 L 46.1875,53.75 53.75,46.1875 z"
       inkscape:connector-curvature="0"
       id="path3736"
       style="opacity:0.6;fill:url(#linearGradient3747);fill-opacity:1;stroke:none" />
    <path
       inkscape:connector-curvature="0"
       d="M 59.093925,53.889267 A 10.985409,10.985409 0 0 1 48.108517,64.874676 l 0,-10.985409 z"
       transform="matrix(0.97938355,0.97938355,-0.70710678,0.70710678,44.710585,-39.029618)"
       id="path3759"
       style="opacity:0.6;fill:url(#radialGradient3791);fill-opacity:1;stroke:none" />
    <path
       d="m 46.833179,54.397699 6.875,-6.785714 11.752992,11.511285"
       inkscape:connector-curvature="0"
       id="path3749"
       style="fill:none;stroke:url(#radialGradient3811);stroke-width:2;stroke-linecap:butt;stroke-linejoin:miter;stroke-miterlimit:4;stroke-opacity:1;stroke-dasharray:none" />
    <path
       d="M 71.76314,64.25 C 70.244357,61.619391 66.880609,60.718077 64.25,62.23686 c -2.630609,1.518783 -3.531923,4.882531 -2.01314,7.51314 1.518783,2.630609 4.882531,3.531923 7.51314,2.01314 2.630609,-1.518783 3.531923,-4.882531 2.01314,-7.51314 z m -0.866026,0.5 C 72.139755,66.902316 71.402316,69.654474 69.25,70.897114 67.097684,72.139755 64.345526,71.402316 63.102886,69.25 61.860245,67.097684 62.597684,64.345526 64.75,63.102886 66.902316,61.860245 69.654474,62.597684 70.897114,64.75 z"
       inkscape:connector-curvature="0"
       id="path3852"
       style="fill:url(#linearGradient3871);fill-opacity:1;stroke:none" />
    <path
       d="m 30.8125,21.625 c -0.250729,0.07675 -0.503137,0.158826 -0.75,0.25 l 7.264594,7.264912 0.5,-0.5 L 30.8125,21.625 z m 16.0625,6.21875 c 1.939225,4.985642 0.900353,10.880898 -3.125,14.90625 -5.433231,5.43323 -14.254269,5.43323 -19.6875,0 -0.804558,-0.804559 -1.46569,-1.693494 -2.03125,-2.625 0.677463,1.676388 1.673181,3.26693 3.03125,4.625 5.433231,5.43323 14.254269,5.43323 19.6875,0 4.584289,-4.584288 5.276698,-11.570942 2.125,-16.90625 z"
       inkscape:connector-curvature="0"
       id="path3889"
       style="opacity:0.4;fill:#4d4d4d;fill-opacity:1;stroke:none" />
    <path
       d="M 37.8125,28.674107 29.15625,37.375 21.875,30.0625 c -0.626892,1.697334 -0.899367,3.493176 -0.84375,5.28125 0.05765,-1.456986 0.33278,-2.897778 0.84375,-4.28125 l 7.28125,7.3125 9.15625,-9.200893 -0.5,-0.5 z"
       inkscape:connector-curvature="0"
       id="path3897"
       style="opacity:0.5;fill:#ffffff;fill-opacity:1;stroke:none" />
  </g>
</svg>
